<svg width="246" height="94" xmlns="http://www.w3.org/2000/svg" xmlns:xlink="http://www.w3.org/1999/xlink" overflow="hidden"><defs><clipPath id="clip0"><rect x="460" y="520" width="246" height="94"/></clipPath><clipPath id="clip1"><rect x="461" y="521" width="40" height="40"/></clipPath><clipPath id="clip2"><rect x="461" y="521" width="40" height="40"/></clipPath><clipPath id="clip3"><rect x="460" y="521" width="42" height="40"/></clipPath><clipPath id="clip4"><rect x="460" y="521" width="42" height="40"/></clipPath><clipPath id="clip5"><rect x="460" y="521" width="41" height="40"/></clipPath><clipPath id="clip6"><rect x="460" y="521" width="41" height="40"/></clipPath><clipPath id="clip7"><rect x="460" y="521" width="41" height="40"/></clipPath><clipPath id="clip8"><rect x="460" y="521" width="41" height="40"/></clipPath></defs><g clip-path="url(#clip0)" transform="translate(-460 -520)"><path d="M469.478 528.495 699.478 528.495 699.478 611.495 469.478 611.495Z" stroke="#262261" stroke-width="1.33333" stroke-miterlimit="8" fill="#FFFFFF" fill-rule="evenodd"/><g clip-path="url(#clip1)"><g clip-path="url(#clip2)"><g clip-path="url(#clip3)"><g clip-path="url(#clip4)"><path d="M221.935 324.516 263.226 324.516 263.226 363.226 221.935 363.226Z" fill="#FFFFFF" transform="matrix(1.00067 0 0 1 238.256 196.484)"/><g clip-path="url(#clip5)"><g clip-path="url(#clip6)"><g clip-path="url(#clip7)"><g clip-path="url(#clip8)"><path d="M23.9446 19.7995 20.9265 17.1435 11.3485 28.9346 14.407 31.5506Z" fill="#262261" transform="matrix(1.05141 0 0 1 460.341 521.965)"/><path d="M11.59 32.315 9.98026 31.0273 9.0949 34.931 12.7168 33.2808Z" fill="#262261" transform="matrix(1.05141 0 0 1 460.341 521.965)"/><path d="M33.2808 1.93166 36.3394 4.54746 37.9492 2.57556 34.8101 0.0402431Z" fill="#262261" transform="matrix(1.05141 0 0 1 460.341 521.965)"/><path d="M27.2846 19.2361 29.1762 20.7654 33.9652 14.8899C35.5748 13.0387 36.3394 10.7046 35.9772 8.77297 35.8163 7.88761 35.4139 7.12303 34.8505 6.4791L31.7919 3.82309 22.4154 15.2923 25.4739 17.9484 33.2407 8.37052C33.4017 8.612 33.5224 8.89368 33.5626 9.21568 33.8041 10.423 33.2005 12.0326 32.1138 13.3205L27.2846 19.2361Z" fill="#262261" transform="matrix(1.05141 0 0 1 460.341 521.965)"/><path d="M2.05239 31.4297C2.13288 31.2285 2.21336 31.0273 2.3341 30.8261 2.57556 30.4237 2.85726 30.1018 3.21943 29.7797 3.90357 29.136 4.78892 28.6127 5.7145 28.1298 6.64006 27.6469 7.60594 27.2043 8.612 26.7214 9.0949 26.4799 9.61806 26.1981 10.1412 25.8359 10.423 25.6751 10.6644 25.4739 10.9461 25.1921 11.2278 24.9104 11.5095 24.5884 11.6705 24.0653 11.8717 23.5824 11.8314 22.9384 11.6705 22.4959 11.5095 22.013 11.1875 21.6507 10.9059 21.369 10.3022 20.8459 9.73877 20.5642 9.21568 20.2824 8.16929 19.7592 7.16323 19.4374 6.23767 18.9947 5.35232 18.552 4.5877 18.0691 4.14503 17.4252 3.70235 16.8215 3.54139 16.0167 3.66211 15.1314 3.78283 14.2057 4.06455 13.3205 4.54746 12.5558 5.55353 11.0266 7.44497 10.0205 9.4571 9.4571 10.4632 9.17542 11.5095 8.97419 12.5961 8.85342 13.1192 8.77297 13.6826 8.73271 14.2057 8.69252 14.7289 8.65226 15.2923 8.612 15.8557 8.612 13.6826 8.04858 11.429 7.92787 9.17542 8.20955 8.04858 8.37052 6.92181 8.65226 5.83523 9.13516 4.74866 9.61806 3.74259 10.3425 2.93774 11.3485 2.5353 11.8314 2.21336 12.3948 1.9719 12.9583 1.73045 13.5619 1.56948 14.1253 1.44875 14.7692 1.32802 15.413 1.32802 16.057 1.4085 16.7411 1.52923 17.4252 1.77069 18.1094 2.17312 18.713 2.57556 19.3166 3.05848 19.7592 3.58163 20.1618 4.10479 20.5642 4.62794 20.8459 5.1511 21.1276 6.19741 21.6507 7.24374 22.0531 8.16929 22.4555 8.612 22.6567 9.01445 22.8983 9.25587 23.0995 9.37658 23.18 9.41684 23.2605 9.41684 23.3006 9.41684 23.341 9.41684 23.3006 9.41684 23.3006 9.41684 23.3006 9.37658 23.4214 9.25587 23.5422 9.13516 23.6629 8.97419 23.7835 8.81322 23.9446 8.45103 24.2263 8.00839 24.4677 7.56568 24.7494 6.64006 25.2726 5.67426 25.7957 4.70843 26.3592 3.74259 26.9628 2.77676 27.6469 1.9719 28.5726 1.56948 29.0152 1.20729 29.5786 0.965832 30.142 0.845103 30.4237 0.724374 30.7456 0.684129 31.0677 0.603645 31.3895 0.603645 31.6713 0.563401 31.953 0.523158 32.5566 0.523158 33.1602 0.724374 33.8041 0.885342 34.4077 1.24753 35.0114 1.77069 35.4139 2.29385 35.8163 2.8975 36.0175 3.46089 36.098 4.06455 36.1784 4.62794 36.1784 5.19134 36.098 6.31815 35.9772 7.36445 35.6553 8.37052 35.2529 7.284 35.4541 6.19741 35.5748 5.1511 35.5346 4.62794 35.4943 4.10479 35.4541 3.62187 35.293 3.13895 35.1724 2.69628 34.931 2.41458 34.6089 1.81094 34.0054 1.73045 33.0395 1.93166 32.0737 1.93166 31.9126 2.01214 31.6309 2.05239 31.4297Z" fill="#262261" transform="matrix(1.05141 0 0 1 460.341 521.965)"/></g></g></g></g></g></g></g></g><text font-family="Consolas,Consolas_MSFontService,sans-serif" font-weight="400" font-size="19" transform="translate(497.293 546)">notary v2 signature<tspan font-family="Calibri,Calibri_MSFontService,sans-serif" font-weight="700" font-size="14" x="9.54321" y="31">config</tspan><tspan font-family="Calibri,Calibri_MSFontService,sans-serif" font-weight="700" font-size="14" x="45.0432" y="31">-</tspan><tspan font-family="Calibri,Calibri_MSFontService,sans-serif" font-weight="700" font-size="14" x="49.3766" y="31">blob</tspan><tspan font-family="Calibri,Calibri_MSFontService,sans-serif" font-weight="700" font-size="14" x="8.68338" y="55">signature</tspan><tspan font-family="Calibri,Calibri_MSFontService,sans-serif" font-weight="700" font-size="14" x="63.1834" y="55">-</tspan><tspan font-family="Calibri,Calibri_MSFontService,sans-serif" font-weight="700" font-size="14" x="67.5167" y="55">blob</tspan></text><path d="M500.943 573.617 481.167 573.617 481.167 561.5 481.833 561.5 481.833 573.283 481.5 572.95 500.943 572.95ZM499.61 569.283 507.61 573.283 499.61 577.283Z" fill="#4472C4"/><path d="M500.083 597.612 481.167 597.612 481.167 561.5 481.833 561.5 481.833 597.278 481.5 596.945 500.083 596.945ZM498.75 593.278 506.75 597.278 498.75 601.278Z" fill="#4472C4"/></g></svg>