<svg width="245" height="99" xmlns="http://www.w3.org/2000/svg" xmlns:xlink="http://www.w3.org/1999/xlink" overflow="hidden"><defs><clipPath id="clip0"><rect x="187" y="558" width="245" height="99"/></clipPath><clipPath id="clip1"><rect x="188" y="558" width="40" height="40"/></clipPath><clipPath id="clip2"><rect x="188" y="558" width="40" height="40"/></clipPath><clipPath id="clip3"><rect x="186" y="558" width="44" height="40"/></clipPath><clipPath id="clip4"><rect x="186" y="558" width="44" height="40"/></clipPath></defs><g clip-path="url(#clip0)" transform="translate(-187 -558)"><path d="M201.478 571.495 431.478 571.495 431.478 654.495 201.478 654.495Z" stroke="#262261" stroke-width="1.33333" stroke-miterlimit="8" fill="#FFFFFF" fill-rule="evenodd"/><g clip-path="url(#clip1)"><g clip-path="url(#clip2)"><g clip-path="url(#clip3)"><g clip-path="url(#clip4)"><path d="M0 0 29.6296 0 29.6296 21.3852C14.8148 21.3852 14.8148 29.5333 0 24.9037Z" stroke="#262261" stroke-width="0.987652" stroke-miterlimit="8" fill="#FFFFFF" fill-rule="evenodd" transform="matrix(-1.00066 0 0 1 223.566 565.037)"/><text font-family="Calibri,Calibri_MSFontService,sans-serif" font-weight="400" font-size="19" transform="matrix(0.741232 0 0 0.740741 195.175 575)">S<tspan font-size="19" x="7.41522" y="5.4">B</tspan><tspan font-size="19" x="15.6819" y="9.45">o</tspan><tspan font-size="16" x="22.0859" y="17.55">M</tspan></text></g></g></g></g><text font-family="Consolas,Consolas_MSFontService,sans-serif" font-weight="400" font-size="19" transform="translate(229.301 589)">SBoM<tspan font-family="Calibri,Calibri_MSFontService,sans-serif" font-weight="700" font-size="14" x="9.5432" y="31">config</tspan><tspan font-family="Calibri,Calibri_MSFontService,sans-serif" font-weight="700" font-size="14" x="45.0432" y="31">-</tspan><tspan font-family="Calibri,Calibri_MSFontService,sans-serif" font-weight="700" font-size="14" x="49.3765" y="31">blob</tspan><tspan font-family="Calibri,Calibri_MSFontService,sans-serif" font-weight="700" font-size="14" x="8.68336" y="55">SBoM</tspan><tspan font-family="Calibri,Calibri_MSFontService,sans-serif" font-weight="700" font-size="14" x="42.85" y="55">-</tspan><tspan font-family="Calibri,Calibri_MSFontService,sans-serif" font-weight="700" font-size="14" x="47.1833" y="55">document</tspan><tspan font-family="Calibri,Calibri_MSFontService,sans-serif" font-weight="700" font-size="14" x="106.183" y="55">-</tspan><tspan font-family="Calibri,Calibri_MSFontService,sans-serif" font-weight="700" font-size="14" x="110.517" y="55">blob</tspan></text><path d="M232.781 616.179 208.167 616.179 208.167 598.5 208.833 598.5 208.833 615.846 208.5 615.513 232.781 615.513ZM231.448 611.846 239.448 615.846 231.448 619.846Z" fill="#4472C4"/><path d="M231.921 640.174 208.167 640.174 208.167 598.5 208.833 598.5 208.833 639.841 208.5 639.508 231.921 639.508ZM230.588 635.841 238.588 639.841 230.588 643.841Z" fill="#4472C4"/></g></svg>