<svg width="243" height="172" xmlns="http://www.w3.org/2000/svg" xmlns:xlink="http://www.w3.org/1999/xlink" overflow="hidden"><defs><clipPath id="clip0"><rect x="766" y="454" width="243" height="172"/></clipPath><clipPath id="clip1"><rect x="799" y="541" width="20" height="20"/></clipPath><clipPath id="clip2"><rect x="799" y="541" width="20" height="20"/></clipPath><clipPath id="clip3"><rect x="799" y="541" width="20" height="20"/></clipPath><clipPath id="clip4"><rect x="769" y="455" width="62" height="43"/></clipPath><clipPath id="clip5"><rect x="769" y="455" width="62" height="43"/></clipPath><clipPath id="clip6"><rect x="769" y="445" width="62" height="63"/></clipPath><clipPath id="clip7"><rect x="799" y="567" width="20" height="20"/></clipPath><clipPath id="clip8"><rect x="799" y="567" width="20" height="20"/></clipPath><clipPath id="clip9"><rect x="799" y="567" width="20" height="20"/></clipPath><clipPath id="clip10"><rect x="794" y="591" width="25" height="23"/></clipPath><clipPath id="clip11"><rect x="794" y="591" width="25" height="23"/></clipPath><clipPath id="clip12"><rect x="794" y="591" width="25" height="23"/></clipPath><clipPath id="clip13"><rect x="794" y="591" width="25" height="23"/></clipPath></defs><g clip-path="url(#clip0)" transform="translate(-766 -454)"><path d="M777.478 462.489 1007.48 462.489 1007.48 624.489 777.478 624.489Z" stroke="#262261" stroke-width="1.33333" stroke-miterlimit="8" fill="#FFFFFF" fill-rule="evenodd"/><text font-family="Consolas,Consolas_MSFontService,sans-serif" font-weight="400" font-size="24" transform="translate(834.854 485)">wordpress:v5<tspan font-family="Calibri,Calibri_MSFontService,sans-serif" font-weight="700" font-size="14" x="-15.2242" y="71">Docker </tspan><tspan font-family="Calibri,Calibri_MSFontService,sans-serif" font-size="14" x="28.7758" y="71">community signature</tspan></text><g clip-path="url(#clip1)"><g clip-path="url(#clip2)"><g clip-path="url(#clip3)"><path d="M811.579 551.402 809.994 550.006 804.962 556.201 806.569 557.575Z" fill="#262261"/><path d="M805.089 557.977 804.243 557.3 803.778 559.351 805.681 558.484Z" fill="#262261"/><path d="M816.484 542.015 818.091 543.389 818.937 542.353 817.288 541.021Z" fill="#262261"/><path d="M813.334 551.106 814.328 551.909 816.844 548.822C817.689 547.85 818.091 546.624 817.901 545.609 817.816 545.144 817.605 544.742 817.309 544.404L815.702 543.008 810.776 549.034 812.383 550.429 816.463 545.397C816.548 545.524 816.611 545.672 816.632 545.841 816.759 546.476 816.442 547.321 815.871 547.998L813.334 551.106Z" fill="#262261"/><path d="M800.078 557.512C800.12 557.406 800.163 557.3 800.226 557.195 800.353 556.983 800.501 556.814 800.691 556.645 801.051 556.307 801.516 556.032 802.002 555.778 802.488 555.524 802.996 555.292 803.524 555.038 803.778 554.911 804.053 554.763 804.328 554.573 804.476 554.488 804.603 554.383 804.751 554.235 804.898 554.087 805.047 553.918 805.131 553.643 805.237 553.389 805.216 553.051 805.131 552.818 805.047 552.564 804.877 552.374 804.729 552.226 804.412 551.951 804.116 551.803 803.841 551.655 803.292 551.381 802.763 551.211 802.277 550.979 801.812 550.746 801.41 550.493 801.178 550.154 800.945 549.837 800.86 549.414 800.924 548.949 800.987 548.463 801.135 547.998 801.389 547.596 801.918 546.793 802.911 546.264 803.968 545.968 804.497 545.82 805.047 545.715 805.617 545.651 805.892 545.609 806.188 545.588 806.463 545.567 806.738 545.545 807.034 545.524 807.33 545.524 806.188 545.228 805.004 545.165 803.82 545.313 803.228 545.397 802.636 545.545 802.066 545.799 801.495 546.053 800.966 546.433 800.543 546.962 800.332 547.216 800.163 547.512 800.036 547.808 799.909 548.125 799.825 548.421 799.761 548.759 799.698 549.097 799.698 549.436 799.74 549.795 799.803 550.154 799.93 550.514 800.142 550.831 800.353 551.148 800.607 551.381 800.882 551.592 801.156 551.803 801.431 551.951 801.706 552.099 802.256 552.374 802.805 552.586 803.292 552.797 803.524 552.903 803.736 553.03 803.863 553.135 803.926 553.178 803.947 553.22 803.947 553.241 803.947 553.262 803.947 553.241 803.947 553.241 803.947 553.241 803.926 553.304 803.863 553.368 803.799 553.431 803.715 553.495 803.63 553.579 803.44 553.727 803.207 553.854 802.975 554.002 802.488 554.277 801.981 554.552 801.474 554.848 800.966 555.165 800.459 555.524 800.036 556.011 799.825 556.243 799.634 556.539 799.507 556.835 799.444 556.983 799.381 557.152 799.359 557.321 799.317 557.49 799.317 557.638 799.296 557.786 799.275 558.104 799.275 558.421 799.381 558.759 799.465 559.076 799.655 559.393 799.93 559.605 800.205 559.816 800.522 559.922 800.818 559.964 801.135 560.006 801.431 560.006 801.727 559.964 802.319 559.901 802.869 559.732 803.397 559.52 802.827 559.626 802.256 559.689 801.706 559.668 801.431 559.647 801.156 559.626 800.903 559.541 800.649 559.478 800.417 559.351 800.268 559.182 799.951 558.865 799.909 558.357 800.015 557.85 800.015 557.765 800.057 557.617 800.078 557.512Z" fill="#262261"/></g></g></g><path d="M822.349 454.992 835.438 464.436C835.621 472.886 835.793 481.335 835.977 489.785L778.523 496.992 767.031 489.039C766.848 480.424 767.203 470.815 767.031 462.199L822.349 454.992Z" fill="#FFFFFF" fill-rule="evenodd"/><g clip-path="url(#clip4)"><g clip-path="url(#clip5)"><g clip-path="url(#clip6)"><path d="M61.5412 43.9112 60.9514 23.463 12.518 30.0169 13.0423 50.7273 61.5412 43.9112ZM57.8055 27.8541 58.1987 40.6342 54.6596 41.1586 54.2664 28.3784 57.8055 27.8541ZM48.8266 29.0994 49.2199 41.8795 45.6808 42.4038 45.2875 29.6237 48.8266 29.0994ZM39.8478 30.3446 40.241 43.1247 36.7019 43.649 36.3087 30.8689 39.8478 30.3446ZM30.8689 31.6554 31.2622 44.4355 27.723 44.9598 27.3298 32.1142 30.8689 31.6554ZM21.8901 32.9006 22.2833 45.6808 18.7442 46.2051 18.351 33.4249 21.8901 32.9006Z" fill="#262261" transform="matrix(1 0 0 1.01021 769 445.184)"/><path d="M0.917548 42.4693 9.17548 48.4334 8.7167 29.3615 0.327696 23.3975Z" fill="#262261" transform="matrix(1 0 0 1.01021 769 445.184)"/><path d="M59.444 19.7928 49.2199 12.518 1.1797 19.2685 11.0761 26.3467Z" fill="#262261" transform="matrix(1 0 0 1.01021 769 445.184)"/></g></g></g><path d="M799.334 552.181 783.167 552.181 783.167 505.167 783.833 505.167 783.833 551.848 783.5 551.515 799.334 551.515ZM779.5 506.5 783.5 498.5 787.5 506.5Z" fill="#4472C4"/><text font-family="Calibri,Calibri_MSFontService,sans-serif" font-weight="700" font-size="14" transform="translate(815.399 511)">Layer1<tspan font-size="14" x="-0.859802" y="24">Layer2</tspan></text><path d="M808.97 508.131 800.167 508.131 800.167 498.5 800.833 498.5 800.833 507.797 800.5 507.464 808.97 507.464ZM807.637 503.797 815.637 507.797 807.637 511.797Z" fill="#4472C4"/><path d="M808.11 532.126 800.167 532.126 800.167 498.5 800.833 498.5 800.833 531.792 800.5 531.459 808.11 531.459ZM806.777 527.792 814.777 531.792 806.777 535.792Z" fill="#4472C4"/><text font-family="Calibri,Calibri_MSFontService,sans-serif" font-weight="700" font-size="14" transform="translate(819.484 581)">ACME Rockets <tspan font-weight="400" font-size="14" x="86.5" y="0">signature</tspan></text><g clip-path="url(#clip7)"><g clip-path="url(#clip8)"><g clip-path="url(#clip9)"><path d="M811.579 577.402 809.994 576.006 804.962 582.201 806.569 583.575Z" fill="#262261"/><path d="M805.089 583.977 804.243 583.3 803.778 585.351 805.681 584.484Z" fill="#262261"/><path d="M816.484 568.015 818.091 569.389 818.937 568.353 817.288 567.021Z" fill="#262261"/><path d="M813.334 577.106 814.328 577.909 816.844 574.822C817.689 573.85 818.091 572.624 817.901 571.609 817.816 571.144 817.605 570.742 817.309 570.404L815.702 569.008 810.776 575.034 812.383 576.429 816.463 571.397C816.548 571.524 816.611 571.672 816.632 571.841 816.759 572.476 816.442 573.321 815.871 573.998L813.334 577.106Z" fill="#262261"/><path d="M800.078 583.512C800.12 583.406 800.163 583.3 800.226 583.195 800.353 582.983 800.501 582.814 800.691 582.645 801.051 582.307 801.516 582.032 802.002 581.778 802.488 581.524 802.996 581.292 803.524 581.038 803.778 580.911 804.053 580.763 804.328 580.573 804.476 580.488 804.603 580.383 804.751 580.235 804.898 580.087 805.047 579.918 805.131 579.643 805.237 579.389 805.216 579.051 805.131 578.818 805.047 578.564 804.877 578.374 804.729 578.226 804.412 577.951 804.116 577.803 803.841 577.655 803.292 577.381 802.763 577.211 802.277 576.979 801.812 576.746 801.41 576.493 801.178 576.154 800.945 575.837 800.86 575.414 800.924 574.949 800.987 574.463 801.135 573.998 801.389 573.596 801.918 572.793 802.911 572.264 803.968 571.968 804.497 571.82 805.047 571.715 805.617 571.651 805.892 571.609 806.188 571.588 806.463 571.567 806.738 571.545 807.034 571.524 807.33 571.524 806.188 571.228 805.004 571.165 803.82 571.313 803.228 571.397 802.636 571.545 802.066 571.799 801.495 572.053 800.966 572.433 800.543 572.962 800.332 573.216 800.163 573.512 800.036 573.808 799.909 574.125 799.825 574.421 799.761 574.759 799.698 575.097 799.698 575.436 799.74 575.795 799.803 576.154 799.93 576.514 800.142 576.831 800.353 577.148 800.607 577.381 800.882 577.592 801.156 577.803 801.431 577.951 801.706 578.099 802.256 578.374 802.805 578.586 803.292 578.797 803.524 578.903 803.736 579.03 803.863 579.135 803.926 579.178 803.947 579.22 803.947 579.241 803.947 579.262 803.947 579.241 803.947 579.241 803.947 579.241 803.926 579.304 803.863 579.368 803.799 579.431 803.715 579.495 803.63 579.579 803.44 579.727 803.207 579.854 802.975 580.002 802.488 580.277 801.981 580.552 801.474 580.848 800.966 581.165 800.459 581.524 800.036 582.011 799.825 582.243 799.634 582.539 799.507 582.835 799.444 582.983 799.381 583.152 799.359 583.321 799.317 583.49 799.317 583.638 799.296 583.786 799.275 584.104 799.275 584.421 799.381 584.759 799.465 585.076 799.655 585.393 799.93 585.605 800.205 585.816 800.522 585.922 800.818 585.964 801.135 586.006 801.431 586.006 801.727 585.964 802.319 585.901 802.869 585.732 803.397 585.52 802.827 585.626 802.256 585.689 801.706 585.668 801.431 585.647 801.156 585.626 800.903 585.541 800.649 585.478 800.417 585.351 800.268 585.182 799.951 584.865 799.909 584.357 800.015 583.85 800.015 583.765 800.057 583.617 800.078 583.512Z" fill="#262261"/></g></g></g><path d="M799.188 578.024 783.167 578.024 783.167 505.167 783.833 505.167 783.833 577.691 783.5 577.358 799.188 577.358ZM779.5 506.5 783.5 498.5 787.5 506.5Z" fill="#4472C4"/><path d="M794.616 603.505 783.167 603.505 783.167 505.167 783.833 505.167 783.833 603.171 783.5 602.838 794.616 602.838ZM779.5 506.5 783.5 498.5 787.5 506.5Z" fill="#4472C4"/><text font-family="Calibri,Calibri_MSFontService,sans-serif" font-weight="700" font-size="14" transform="translate(817.045 607)">SBoM<tspan font-weight="400" font-size="14" x="37.3334" y="0">Document</tspan></text><g clip-path="url(#clip10)"><g clip-path="url(#clip11)"><g clip-path="url(#clip12)"><g clip-path="url(#clip13)"><text font-family="Calibri,Calibri_MSFontService,sans-serif" font-weight="400" font-size="8" transform="matrix(1.04167 0 0 1 800.032 601)">S<tspan font-size="8" x="3.01453" y="2">B</tspan><tspan font-size="8" x="6.23109" y="4">o</tspan><tspan font-size="7" x="7.98117" y="7">M</tspan></text></g></g></g></g></g></svg>