<svg width="243" height="73" xmlns="http://www.w3.org/2000/svg" xmlns:xlink="http://www.w3.org/1999/xlink" overflow="hidden"><defs><clipPath id="clip0"><rect x="907" y="452" width="243" height="73"/></clipPath><clipPath id="clip1"><rect x="953" y="495" width="20" height="20"/></clipPath><clipPath id="clip2"><rect x="953" y="495" width="20" height="20"/></clipPath><clipPath id="clip3"><rect x="953" y="495" width="20" height="20"/></clipPath><clipPath id="clip4"><rect x="910" y="453" width="62" height="43"/></clipPath><clipPath id="clip5"><rect x="910" y="453" width="62" height="43"/></clipPath><clipPath id="clip6"><rect x="910" y="443" width="62" height="63"/></clipPath></defs><g clip-path="url(#clip0)" transform="translate(-907 -452)"><path d="M918.478 460.496 1148.48 460.496 1148.48 524.496 918.478 524.496Z" stroke="#262261" stroke-width="1.33333" stroke-miterlimit="8" fill="#FFFFFF" fill-rule="evenodd"/><text font-family="Calibri,Calibri_MSFontService,sans-serif" font-weight="400" font-size="24" transform="translate(975.94 482)">wordpress:v5<tspan font-weight="700" font-size="14" x="-2.58887" y="27">Docker </tspan><tspan font-size="14" x="41.4111" y="27">community signature</tspan></text><g clip-path="url(#clip1)"><g clip-path="url(#clip2)"><g clip-path="url(#clip3)"><path d="M965.579 505.402 963.994 504.006 958.962 510.201 960.569 511.575Z" fill="#262261"/><path d="M959.089 511.977 958.243 511.3 957.778 513.351 959.681 512.484Z" fill="#262261"/><path d="M970.484 496.015 972.091 497.389 972.937 496.353 971.288 495.021Z" fill="#262261"/><path d="M967.334 505.106 968.328 505.909 970.844 502.822C971.689 501.85 972.091 500.624 971.901 499.609 971.816 499.144 971.605 498.742 971.309 498.404L969.702 497.008 964.776 503.034 966.383 504.429 970.463 499.397C970.548 499.524 970.611 499.672 970.632 499.841 970.759 500.476 970.442 501.321 969.871 501.998L967.334 505.106Z" fill="#262261"/><path d="M954.078 511.512C954.12 511.406 954.163 511.3 954.226 511.195 954.353 510.983 954.501 510.814 954.691 510.645 955.051 510.307 955.516 510.032 956.002 509.778 956.488 509.524 956.996 509.292 957.524 509.038 957.778 508.911 958.053 508.763 958.328 508.573 958.476 508.488 958.603 508.383 958.751 508.235 958.898 508.087 959.047 507.918 959.131 507.643 959.237 507.389 959.216 507.051 959.131 506.818 959.047 506.564 958.877 506.374 958.729 506.226 958.412 505.951 958.116 505.803 957.841 505.655 957.292 505.381 956.763 505.211 956.277 504.979 955.812 504.746 955.41 504.493 955.178 504.154 954.945 503.837 954.86 503.414 954.924 502.949 954.987 502.463 955.135 501.998 955.389 501.596 955.918 500.793 956.911 500.264 957.968 499.968 958.497 499.82 959.047 499.715 959.617 499.651 959.892 499.609 960.188 499.588 960.463 499.567 960.738 499.545 961.034 499.524 961.33 499.524 960.188 499.228 959.004 499.165 957.82 499.313 957.228 499.397 956.636 499.545 956.066 499.799 955.495 500.053 954.966 500.433 954.543 500.962 954.332 501.216 954.163 501.512 954.036 501.808 953.909 502.125 953.825 502.421 953.761 502.759 953.698 503.097 953.698 503.436 953.74 503.795 953.803 504.154 953.93 504.514 954.142 504.831 954.353 505.148 954.607 505.381 954.882 505.592 955.156 505.803 955.431 505.951 955.706 506.099 956.256 506.374 956.805 506.586 957.292 506.797 957.524 506.903 957.736 507.03 957.863 507.135 957.926 507.178 957.947 507.22 957.947 507.241 957.947 507.262 957.947 507.241 957.947 507.241 957.947 507.241 957.926 507.304 957.863 507.368 957.799 507.431 957.715 507.495 957.63 507.579 957.44 507.727 957.207 507.854 956.975 508.002 956.488 508.277 955.981 508.552 955.474 508.848 954.966 509.165 954.459 509.524 954.036 510.011 953.825 510.243 953.634 510.539 953.507 510.835 953.444 510.983 953.381 511.152 953.359 511.321 953.317 511.49 953.317 511.638 953.296 511.786 953.275 512.104 953.275 512.421 953.381 512.759 953.465 513.076 953.655 513.393 953.93 513.605 954.205 513.816 954.522 513.922 954.818 513.964 955.135 514.006 955.431 514.006 955.727 513.964 956.319 513.901 956.869 513.732 957.397 513.52 956.827 513.626 956.256 513.689 955.706 513.668 955.431 513.647 955.156 513.626 954.903 513.541 954.649 513.478 954.417 513.351 954.268 513.182 953.951 512.865 953.909 512.357 954.015 511.85 954.015 511.765 954.057 511.617 954.078 511.512Z" fill="#262261"/></g></g></g><path d="M963.349 452.992 976.438 462.436C976.621 470.886 976.793 479.335 976.977 487.785L919.523 494.992 908.031 487.039C907.848 478.424 908.203 468.815 908.031 460.199L963.349 452.992Z" fill="#FFFFFF" fill-rule="evenodd"/><g clip-path="url(#clip4)"><g clip-path="url(#clip5)"><g clip-path="url(#clip6)"><path d="M61.5412 43.9112 60.9514 23.463 12.518 30.0169 13.0423 50.7273 61.5412 43.9112ZM57.8055 27.8541 58.1987 40.6342 54.6596 41.1586 54.2664 28.3784 57.8055 27.8541ZM48.8266 29.0994 49.2199 41.8795 45.6808 42.4038 45.2875 29.6237 48.8266 29.0994ZM39.8478 30.3446 40.241 43.1247 36.7019 43.649 36.3087 30.8689 39.8478 30.3446ZM30.8689 31.6554 31.2622 44.4355 27.723 44.9598 27.3298 32.1142 30.8689 31.6554ZM21.8901 32.9006 22.2833 45.6808 18.7442 46.2051 18.351 33.4249 21.8901 32.9006Z" fill="#262261" transform="matrix(1 0 0 1.01021 910 443.184)"/><path d="M0.917548 42.4693 9.17548 48.4334 8.7167 29.3615 0.327696 23.3975Z" fill="#262261" transform="matrix(1 0 0 1.01021 910 443.184)"/><path d="M59.444 19.7928 49.2199 12.518 1.1797 19.2685 11.0761 26.3467Z" fill="#262261" transform="matrix(1 0 0 1.01021 910 443.184)"/></g></g></g><path d="M952.97 506.001 924.167 506.001 924.167 503.167 924.833 503.167 924.833 505.668 924.5 505.335 952.97 505.335ZM920.5 504.5 924.5 496.5 928.5 504.5Z" fill="#4472C4"/></g></svg>