<svg width="242" height="96" xmlns="http://www.w3.org/2000/svg" xmlns:xlink="http://www.w3.org/1999/xlink" overflow="hidden"><defs><clipPath id="clip0"><rect x="832" y="479" width="242" height="96"/></clipPath><clipPath id="clip1"><rect x="835" y="480" width="62" height="43"/></clipPath><clipPath id="clip2"><rect x="835" y="480" width="62" height="43"/></clipPath><clipPath id="clip3"><rect x="835" y="470" width="62" height="63"/></clipPath></defs><g clip-path="url(#clip0)" transform="translate(-832 -479)"><path d="M843.478 487.494 1073.48 487.494 1073.48 574.494 843.478 574.494Z" stroke="#262261" stroke-width="1.33333" stroke-miterlimit="8" fill="#FFFFFF" fill-rule="evenodd"/><text font-family="Consolas,Consolas_MSFontService,sans-serif" font-weight="400" font-size="24" transform="translate(900.25 510)">wordpress:v5</text><path d="M887.349 479.992 900.438 489.436C900.621 497.886 900.793 506.335 900.977 514.785L843.523 521.992 832.031 514.039C831.848 505.424 832.203 495.815 832.031 487.199L887.349 479.992Z" fill="#FFFFFF" fill-rule="evenodd"/><g clip-path="url(#clip1)"><g clip-path="url(#clip2)"><g clip-path="url(#clip3)"><path d="M61.5412 43.9112 60.9514 23.463 12.518 30.0169 13.0423 50.7273 61.5412 43.9112ZM57.8055 27.8541 58.1987 40.6342 54.6596 41.1586 54.2664 28.3784 57.8055 27.8541ZM48.8266 29.0994 49.2199 41.8795 45.6808 42.4038 45.2875 29.6237 48.8266 29.0994ZM39.8478 30.3446 40.241 43.1247 36.7019 43.649 36.3087 30.8689 39.8478 30.3446ZM30.8689 31.6554 31.2622 44.4355 27.723 44.9598 27.3298 32.1142 30.8689 31.6554ZM21.8901 32.9006 22.2833 45.6808 18.7442 46.2051 18.351 33.4249 21.8901 32.9006Z" fill="#262261" transform="matrix(1 0 0 1.01021 835 470.184)"/><path d="M0.917548 42.4693 9.17548 48.4334 8.7167 29.3615 0.327696 23.3975Z" fill="#262261" transform="matrix(1 0 0 1.01021 835 470.184)"/><path d="M59.444 19.7928 49.2199 12.518 1.1797 19.2685 11.0761 26.3467Z" fill="#262261" transform="matrix(1 0 0 1.01021 835 470.184)"/></g></g></g><text font-family="Calibri,Calibri_MSFontService,sans-serif" font-weight="700" font-size="14" transform="translate(880.795 537)">Layer1<tspan font-size="14" x="-0.859802" y="24">Layer2</tspan></text><path d="M874.97 533.131 866.167 533.131 866.167 523.5 866.833 523.5 866.833 532.797 866.5 532.464 874.97 532.464ZM873.637 528.797 881.637 532.797 873.637 536.797Z" fill="#4472C4"/><path d="M874.11 557.126 866.167 557.126 866.167 523.5 866.833 523.5 866.833 556.792 866.5 556.459 874.11 556.459ZM872.777 552.792 880.777 556.792 872.777 560.792Z" fill="#4472C4"/></g></svg>