<svg width="242" height="141" xmlns="http://www.w3.org/2000/svg" xmlns:xlink="http://www.w3.org/1999/xlink" overflow="hidden"><defs><clipPath id="clip0"><rect x="827" y="520" width="242" height="141"/></clipPath><clipPath id="clip1"><rect x="859" y="607" width="21" height="20"/></clipPath><clipPath id="clip2"><rect x="859" y="607" width="21" height="20"/></clipPath><clipPath id="clip3"><rect x="859" y="607" width="21" height="20"/></clipPath><clipPath id="clip4"><rect x="830" y="521" width="62" height="42"/></clipPath><clipPath id="clip5"><rect x="830" y="521" width="62" height="42"/></clipPath><clipPath id="clip6"><rect x="830" y="511" width="62" height="62"/></clipPath><clipPath id="clip7"><rect x="859" y="632" width="21" height="21"/></clipPath><clipPath id="clip8"><rect x="859" y="632" width="21" height="21"/></clipPath><clipPath id="clip9"><rect x="859" y="632" width="21" height="21"/></clipPath></defs><g clip-path="url(#clip0)" transform="translate(-827 -520)"><path d="M838.478 528.491 1068.48 528.491 1068.48 660.491 838.478 660.491Z" stroke="#262261" stroke-width="1.33333" stroke-miterlimit="8" fill="#FFFFFF" fill-rule="evenodd"/><text font-family="Consolas,Consolas_MSFontService,sans-serif" font-weight="400" font-size="24" transform="translate(895.273 551)">wordpress:v5<tspan font-family="Calibri,Calibri_MSFontService,sans-serif" font-weight="700" font-size="14" x="-15.2241" y="70">Docker </tspan><tspan font-family="Calibri,Calibri_MSFontService,sans-serif" font-size="14" x="28.7759" y="70">community signature</tspan></text><g clip-path="url(#clip1)"><g clip-path="url(#clip2)"><g clip-path="url(#clip3)"><path d="M12.5793 10.4017 10.9937 9.00634 5.96195 15.2008 7.56871 16.5751Z" fill="#262261" transform="matrix(1.05 0 0 1 859 607)"/><path d="M6.0888 16.9767 5.24313 16.3002 4.77801 18.351 6.68076 17.4841Z" fill="#262261" transform="matrix(1.05 0 0 1 859 607)"/><path d="M17.4841 1.0148 19.0909 2.38901 19.9366 1.35307 18.2875 0.0211417Z" fill="#262261" transform="matrix(1.05 0 0 1 859 607)"/><path d="M14.334 10.1057 15.3277 10.9091 17.8436 7.82241C18.6892 6.8499 19.0909 5.62368 18.9006 4.60888 18.8161 4.14376 18.6047 3.74207 18.3087 3.40381L16.7019 2.00846 11.7759 8.03383 13.3827 9.42918 17.463 4.39746C17.5476 4.52431 17.611 4.6723 17.6321 4.84144 17.759 5.47569 17.4419 6.32135 16.871 6.99789L14.334 10.1057Z" fill="#262261" transform="matrix(1.05 0 0 1 859 607)"/><path d="M1.07822 16.5116C1.12051 16.4059 1.16279 16.3002 1.22622 16.1945 1.35307 15.9831 1.50106 15.814 1.69133 15.6448 2.05074 15.3066 2.51586 15.0317 3.00211 14.778 3.48837 14.5243 3.99577 14.2918 4.52431 14.0381 4.77801 13.9112 5.05285 13.7632 5.3277 13.5729 5.47569 13.4884 5.60254 13.3827 5.75053 13.2347 5.89852 13.0867 6.04651 12.9175 6.13108 12.6427 6.23679 12.389 6.21564 12.0507 6.13108 11.8182 6.04651 11.5645 5.87738 11.3742 5.72939 11.2262 5.41226 10.9514 5.11628 10.8034 4.84144 10.6554 4.29175 10.3805 3.76321 10.2114 3.27696 9.97886 2.81184 9.7463 2.41015 9.4926 2.17759 9.15433 1.94503 8.83721 1.86047 8.41438 1.92389 7.94926 1.98731 7.463 2.13531 6.99789 2.38901 6.59619 2.91755 5.79281 3.91121 5.26427 4.96829 4.96829 5.49683 4.8203 6.04651 4.71459 6.61734 4.65116 6.89218 4.60888 7.18816 4.58774 7.463 4.5666 7.73784 4.54545 8.03383 4.52431 8.32981 4.52431 7.18816 4.22833 6.00423 4.16491 4.8203 4.3129 4.22833 4.39746 3.63636 4.54545 3.06554 4.79915 2.49471 5.05285 1.96617 5.4334 1.54334 5.96195 1.33192 6.21564 1.16279 6.51163 1.03594 6.80761 0.909091 7.12474 0.824524 7.42072 0.761099 7.75899 0.697674 8.09725 0.697674 8.43552 0.739958 8.79493 0.803383 9.15433 0.930233 9.51374 1.14165 9.83087 1.35307 10.148 1.60677 10.3805 1.88161 10.592 2.15645 10.8034 2.43129 10.9514 2.70613 11.0994 3.25581 11.3742 3.8055 11.5856 4.29175 11.797 4.52431 11.9027 4.73573 12.0296 4.86258 12.1353 4.926 12.1776 4.94715 12.2199 4.94715 12.241 4.94715 12.2622 4.94715 12.241 4.94715 12.241 4.94715 12.241 4.926 12.3044 4.86258 12.3679 4.79915 12.4313 4.71459 12.4947 4.63002 12.5793 4.43975 12.7273 4.20719 12.8541 3.97463 13.0021 3.48837 13.277 2.98097 13.5518 2.47357 13.8478 1.96617 14.1649 1.45877 14.5243 1.03594 15.0106 0.824524 15.2431 0.63425 15.5391 0.5074 15.8351 0.443975 15.9831 0.38055 16.1522 0.359408 16.3214 0.317125 16.4905 0.317125 16.6385 0.295983 16.7865 0.274841 17.1036 0.274841 17.4207 0.38055 17.759 0.465116 18.0761 0.655391 18.3932 0.930233 18.6047 1.20507 18.8161 1.5222 18.9218 1.81818 18.9641 2.13531 19.0063 2.43129 19.0063 2.72727 18.9641 3.31924 18.9006 3.86892 18.7315 4.39746 18.5201 3.82664 18.6258 3.25581 18.6892 2.70613 18.6681 2.43129 18.6469 2.15645 18.6258 1.90275 18.5412 1.64905 18.4778 1.41649 18.351 1.2685 18.1818 0.951374 17.8647 0.909091 17.3573 1.0148 16.8499 1.0148 16.7653 1.05708 16.6173 1.07822 16.5116Z" fill="#262261" transform="matrix(1.05 0 0 1 859 607)"/></g></g></g><path d="M883.151 520.992 896.43 530.436C896.616 538.886 896.79 547.335 896.976 555.785L838.691 562.992 827.031 555.039C826.845 546.424 827.206 536.815 827.031 528.199L883.151 520.992Z" fill="#FFFFFF" fill-rule="evenodd"/><g clip-path="url(#clip4)"><g clip-path="url(#clip5)"><g clip-path="url(#clip6)"><path d="M60.7237 43.3278 60.1416 23.1513 12.3517 29.6181 12.869 50.0534 60.7237 43.3278ZM57.0376 27.4841 57.4256 40.0944 53.9335 40.6118 53.5455 28.0014 57.0376 27.4841ZM48.178 28.7128 48.566 41.3231 45.0739 41.8405 44.6859 29.2301 48.178 28.7128ZM39.3184 29.9415 39.7064 42.5518 36.2143 43.0692 35.8263 30.4588 39.3184 29.9415ZM30.4588 31.2348 30.8468 43.8452 27.3547 44.3625 26.9667 31.6875 30.4588 31.2348ZM21.5993 32.4636 21.9873 45.0739 18.4952 45.5912 18.1072 32.9809 21.5993 32.4636Z" fill="#262261" transform="matrix(1.01346 0 0 1 830 511.412)"/><path d="M0.905358 41.9051 9.05358 47.79 8.6009 28.9715 0.323342 23.0866Z" fill="#262261" transform="matrix(1.01346 0 0 1 830 511.412)"/><path d="M58.6543 19.5299 48.566 12.3517 1.16403 19.0125 10.929 25.9967Z" fill="#262261" transform="matrix(1.01346 0 0 1 830 511.412)"/></g></g></g><path d="M860.334 617.181 844.167 617.181 844.167 570.167 844.833 570.167 844.833 616.848 844.5 616.515 860.334 616.515ZM840.5 571.5 844.5 563.5 848.5 571.5Z" fill="#4472C4"/><text font-family="Calibri,Calibri_MSFontService,sans-serif" font-weight="700" font-size="14" transform="translate(875.818 577)">Layer1<tspan font-size="14" x="-0.859863" y="24">Layer2</tspan></text><path d="M869.97 573.131 861.167 573.131 861.167 563.5 861.833 563.5 861.833 572.797 861.5 572.464 869.97 572.464ZM868.637 568.797 876.637 572.797 868.637 576.797Z" fill="#4472C4"/><path d="M869.11 597.126 861.167 597.126 861.167 563.5 861.833 563.5 861.833 596.792 861.5 596.459 869.11 596.459ZM867.777 592.792 875.777 596.792 867.777 600.792Z" fill="#4472C4"/><text font-family="Calibri,Calibri_MSFontService,sans-serif" font-weight="700" font-size="14" transform="translate(879.903 647)">ACME Rockets <tspan font-weight="400" font-size="14" x="86.5" y="0">signature</tspan></text><g clip-path="url(#clip7)"><g clip-path="url(#clip8)"><g clip-path="url(#clip9)"><path d="M872.208 642.922 870.543 641.457 865.26 647.961 866.947 649.404Z" fill="#262261"/><path d="M865.393 649.826 864.505 649.115 864.017 651.268 866.015 650.358Z" fill="#262261"/><path d="M877.358 633.066 879.045 634.508 879.933 633.421 878.202 632.022Z" fill="#262261"/><path d="M874.051 642.611 875.094 643.455 877.736 640.214C878.624 639.192 879.045 637.905 878.846 636.839 878.757 636.351 878.535 635.929 878.224 635.574L876.537 634.109 871.365 640.436 873.052 641.901 877.336 636.617C877.425 636.751 877.492 636.906 877.514 637.083 877.647 637.749 877.314 638.637 876.715 639.348L874.051 642.611Z" fill="#262261"/><path d="M860.132 649.337C860.177 649.226 860.221 649.115 860.288 649.004 860.421 648.782 860.576 648.605 860.776 648.427 861.153 648.072 861.642 647.783 862.152 647.517 862.663 647.251 863.196 647.006 863.751 646.74 864.017 646.607 864.305 646.451 864.594 646.252 864.749 646.163 864.883 646.052 865.038 645.896 865.193 645.741 865.349 645.563 865.438 645.275 865.549 645.008 865.526 644.653 865.438 644.409 865.349 644.143 865.171 643.943 865.016 643.788 864.683 643.499 864.372 643.344 864.083 643.188 863.506 642.9 862.951 642.722 862.441 642.478 861.952 642.234 861.531 641.967 861.286 641.612 861.042 641.279 860.953 640.835 861.02 640.347 861.087 639.836 861.242 639.348 861.508 638.926 862.063 638.082 863.107 637.527 864.217 637.217 864.772 637.061 865.349 636.95 865.948 636.884 866.237 636.839 866.548 636.817 866.836 636.795 867.125 636.773 867.436 636.751 867.746 636.751 866.548 636.44 865.304 636.373 864.061 636.529 863.44 636.617 862.818 636.773 862.219 637.039 861.619 637.305 861.064 637.705 860.62 638.26 860.398 638.526 860.221 638.837 860.088 639.148 859.955 639.481 859.866 639.792 859.799 640.147 859.733 640.502 859.733 640.857 859.777 641.235 859.844 641.612 859.977 641.989 860.199 642.322 860.421 642.655 860.687 642.9 860.976 643.122 861.264 643.344 861.553 643.499 861.841 643.654 862.419 643.943 862.996 644.165 863.506 644.387 863.751 644.498 863.973 644.631 864.106 644.742 864.172 644.786 864.195 644.831 864.195 644.853 864.195 644.875 864.195 644.853 864.195 644.853 864.195 644.853 864.172 644.92 864.106 644.986 864.039 645.053 863.95 645.119 863.862 645.208 863.662 645.364 863.418 645.497 863.173 645.652 862.663 645.941 862.13 646.229 861.597 646.54 861.064 646.873 860.532 647.251 860.088 647.761 859.866 648.005 859.666 648.316 859.533 648.627 859.466 648.782 859.4 648.96 859.377 649.137 859.333 649.315 859.333 649.47 859.311 649.626 859.289 649.959 859.289 650.292 859.4 650.647 859.488 650.98 859.688 651.313 859.977 651.535 860.265 651.757 860.598 651.868 860.909 651.912 861.242 651.957 861.553 651.957 861.864 651.912 862.485 651.846 863.062 651.668 863.617 651.446 863.018 651.557 862.419 651.624 861.841 651.602 861.553 651.579 861.264 651.557 860.998 651.468 860.732 651.402 860.487 651.268 860.332 651.091 859.999 650.758 859.955 650.225 860.066 649.692 860.066 649.604 860.11 649.448 860.132 649.337Z" fill="#262261"/></g></g></g><path d="M860.188 643.024 844.167 643.024 844.167 570.167 844.833 570.167 844.833 642.691 844.5 642.358 860.188 642.358ZM840.5 571.5 844.5 563.5 848.5 571.5Z" fill="#4472C4"/></g></svg>