<svg width="423" height="505" xmlns="http://www.w3.org/2000/svg" xmlns:xlink="http://www.w3.org/1999/xlink" overflow="hidden"><defs><clipPath id="clip0"><rect x="889" y="-8" width="423" height="505"/></clipPath><clipPath id="clip1"><rect x="909" y="0" width="62" height="42"/></clipPath><clipPath id="clip2"><rect x="909" y="0" width="62" height="43"/></clipPath><clipPath id="clip3"><rect x="909" y="-10" width="62" height="62"/></clipPath><clipPath id="clip4"><rect x="965" y="132" width="34" height="34"/></clipPath><clipPath id="clip5"><rect x="965" y="132" width="34" height="34"/></clipPath><clipPath id="clip6"><rect x="964" y="132" width="36" height="34"/></clipPath><clipPath id="clip7"><rect x="964" y="132" width="36" height="34"/></clipPath><clipPath id="clip8"><rect x="964" y="132" width="35" height="34"/></clipPath><clipPath id="clip9"><rect x="964" y="132" width="35" height="34"/></clipPath><clipPath id="clip10"><rect x="964" y="132" width="35" height="34"/></clipPath><clipPath id="clip11"><rect x="964" y="132" width="35" height="34"/></clipPath><clipPath id="clip12"><rect x="965" y="254" width="33" height="33"/></clipPath><clipPath id="clip13"><rect x="965" y="254" width="33" height="33"/></clipPath><clipPath id="clip14"><rect x="964" y="254" width="35" height="33"/></clipPath><clipPath id="clip15"><rect x="964" y="254" width="35" height="33"/></clipPath><clipPath id="clip16"><rect x="964" y="254" width="34" height="33"/></clipPath><clipPath id="clip17"><rect x="964" y="254" width="34" height="33"/></clipPath><clipPath id="clip18"><rect x="964" y="254" width="34" height="33"/></clipPath><clipPath id="clip19"><rect x="964" y="254" width="34" height="33"/></clipPath><clipPath id="clip20"><rect x="1006" y="375" width="34" height="34"/></clipPath><clipPath id="clip21"><rect x="1006" y="375" width="34" height="34"/></clipPath><clipPath id="clip22"><rect x="1005" y="375" width="36" height="34"/></clipPath><clipPath id="clip23"><rect x="1005" y="375" width="36" height="34"/></clipPath><clipPath id="clip24"><rect x="1005" y="375" width="35" height="34"/></clipPath><clipPath id="clip25"><rect x="1005" y="375" width="35" height="34"/></clipPath><clipPath id="clip26"><rect x="1005" y="375" width="35" height="34"/></clipPath><clipPath id="clip27"><rect x="1005" y="375" width="35" height="34"/></clipPath></defs><g clip-path="url(#clip0)" transform="translate(-889 8)"><rect x="890" y="-7" width="421" height="503" fill="#FFFFFF"/><path d="M930.5 110.5 925 119.5 919.5 110.5Z" stroke="#4472C4" stroke-width="1.33333" stroke-miterlimit="8" fill="none" fill-rule="evenodd"/><path d="M917.475 7.49249 1174.47 7.49249 1174.47 120.492 917.475 120.492Z" stroke="#262261" stroke-width="1.33333" stroke-miterlimit="8" fill="#FFFFFF" fill-rule="evenodd"/><text font-family="Consolas,Consolas_MSFontService,sans-serif" font-weight="400" font-size="24" transform="translate(974.122 30)">net-<tspan font-size="24" x="52.6666" y="0">monitor:</tspan><tspan font-size="24" x="158" y="0">v1</tspan></text><path d="M961.349-0.00755905 974.438 9.43643C974.621 17.8864 974.793 26.3354 974.977 34.7854L917.523 41.9924 906.031 34.0395C905.848 25.4245 906.203 15.8154 906.031 7.19947L961.349-0.00755905Z" fill="#FFFFFF" fill-rule="evenodd"/><g clip-path="url(#clip1)"><g clip-path="url(#clip2)"><g clip-path="url(#clip3)"><path d="M60.7237 43.3278 60.1416 23.1513 12.3517 29.6181 12.869 50.0534 60.7237 43.3278ZM57.0376 27.4841 57.4256 40.0944 53.9335 40.6118 53.5455 28.0014 57.0376 27.4841ZM48.178 28.7128 48.566 41.3231 45.0739 41.8405 44.6859 29.2301 48.178 28.7128ZM39.3184 29.9415 39.7064 42.5518 36.2143 43.0692 35.8263 30.4588 39.3184 29.9415ZM30.4588 31.2348 30.8468 43.8452 27.3547 44.3625 26.9667 31.6875 30.4588 31.2348ZM21.5993 32.4636 21.9873 45.0739 18.4952 45.5912 18.1072 32.9809 21.5993 32.4636Z" fill="#262261" transform="matrix(1.01346 0 0 1 909 -9.58817)"/><path d="M0.905358 41.9051 9.05358 47.79 8.6009 28.9715 0.323342 23.0866Z" fill="#262261" transform="matrix(1.01346 0 0 1 909 -9.58817)"/><path d="M58.6543 19.5299 48.566 12.3517 1.16403 19.0125 10.929 25.9967Z" fill="#262261" transform="matrix(1.01346 0 0 1 909 -9.58817)"/></g></g></g><text font-family="Calibri,Calibri_MSFontService,sans-serif" font-weight="700" font-size="14" transform="translate(954.667 90)">layer1 (blob)<tspan font-size="14" x="-0.859863" y="22">layer2 (blob)</tspan></text><path d="M948.97 85.597 940.167 85.597 940.167 42.5 940.833 42.5 940.833 85.2636 940.5 84.9303 948.97 84.9303ZM947.637 81.2636 955.637 85.2636 947.637 89.2636Z" fill="#4472C4"/><path d="M948.11 107.592 940.167 107.592 940.167 42.5001 940.833 42.5001 940.833 107.259 940.5 106.925 948.11 106.925ZM946.777 103.259 954.777 107.259 946.777 111.259Z" fill="#4472C4"/><text font-family="Calibri,Calibri_MSFontService,sans-serif" font-weight="700" font-size="14" transform="translate(953.807 69)">config (blob)</text><path d="M948.11 64.5479 940.167 64.5479 940.167 42.5001 940.833 42.5001 940.833 64.2146 940.5 63.8813 948.11 63.8813ZM946.777 60.2146 954.777 64.2146 946.777 68.2146Z" fill="#4472C4"/><text fill="#FF0000" font-family="Calibri,Calibri_MSFontService,sans-serif" font-weight="700" font-size="14" transform="translate(976.466 47)">mediaType<tspan fill="#000000" font-size="14" x="64.3334" y="0">: </tspan><tspan fill="#C00000" font-size="14" x="71.3334" y="0">oci.image.manifest</tspan></text><path d="M973.471 139.493 1266.47 139.493 1266.47 242.493 973.471 242.493Z" stroke="#262261" stroke-width="1.33333" stroke-miterlimit="8" fill="#FFFFFF" fill-rule="evenodd"/><g clip-path="url(#clip4)"><g clip-path="url(#clip5)"><g clip-path="url(#clip6)"><g clip-path="url(#clip7)"><path d="M188.645 275.839 223.742 275.839 223.742 308.742 188.645 308.742Z" fill="#FFFFFF" transform="matrix(1.00067 0 0 1 775.668 -143.839)"/><g clip-path="url(#clip8)"><g clip-path="url(#clip9)"><g clip-path="url(#clip10)"><g clip-path="url(#clip11)"><path d="M20.3529 16.8296 17.7875 14.572 9.64624 24.5944 12.2459 26.818Z" fill="#262261" transform="matrix(1.05141 0 0 1 964.44 132.82)"/><path d="M9.8515 27.4678 8.48322 26.3732 7.73067 29.6913 10.8093 28.2887Z" fill="#262261" transform="matrix(1.05141 0 0 1 964.44 132.82)"/><path d="M28.2887 1.64191 30.8885 3.86535 32.2568 2.18923 29.5886 0.0342066Z" fill="#262261" transform="matrix(1.05141 0 0 1 964.44 132.82)"/><path d="M23.1919 16.3507 24.7998 17.6506 28.8704 12.6564C30.2386 11.0829 30.8885 9.09895 30.5806 7.45702 30.4439 6.70447 30.1018 6.05458 29.6229 5.50723L27.0231 3.24963 19.0531 12.9985 21.6528 15.2561 28.2546 7.11494C28.3915 7.3202 28.494 7.55963 28.5282 7.83333 28.7335 8.85952 28.2204 10.2277 27.2967 11.3224L23.1919 16.3507Z" fill="#262261" transform="matrix(1.05141 0 0 1 964.44 132.82)"/><path d="M1.74453 26.7153C1.81295 26.5442 1.88136 26.3732 1.98399 26.2022 2.18923 25.8602 2.42867 25.5865 2.73652 25.3128 3.31803 24.7656 4.07058 24.3208 4.85732 23.9103 5.64405 23.4999 6.46505 23.1237 7.3202 22.7132 7.73067 22.5079 8.17535 22.2684 8.62004 21.9605 8.85952 21.8238 9.06473 21.6528 9.30416 21.4133 9.54364 21.1739 9.78306 20.9001 9.91988 20.4555 10.0909 20.045 10.0567 19.4977 9.91988 19.1215 9.78306 18.711 9.50942 18.4031 9.26999 18.1636 8.75686 17.719 8.27796 17.4796 7.83333 17.2401 6.9439 16.7953 6.08874 16.5218 5.30202 16.1455 4.54947 15.7692 3.89955 15.3587 3.52327 14.8114 3.147 14.2983 3.01018 13.6142 3.11279 12.8617 3.21541 12.0749 3.45487 11.3224 3.86535 10.6724 4.72051 9.37259 6.32822 8.51744 8.03853 8.03853 8.89369 7.79911 9.78306 7.62806 10.7067 7.52541 11.1513 7.45702 11.6302 7.4228 12.0749 7.38864 12.5196 7.35442 12.9985 7.3202 13.4774 7.3202 11.6302 6.84129 9.71468 6.73869 7.79911 6.97812 6.84129 7.11494 5.88354 7.35442 4.95995 7.76489 4.03637 8.17535 3.1812 8.79108 2.49708 9.64624 2.15501 10.0567 1.88136 10.5356 1.67612 11.0145 1.47088 11.5276 1.33406 12.0065 1.23144 12.5538 1.12882 13.1011 1.12882 13.6484 1.19723 14.2299 1.29985 14.8114 1.50509 15.393 1.84715 15.906 2.18923 16.4191 2.59971 16.7953 3.04439 17.1375 3.48907 17.4796 3.93375 17.719 4.37843 17.9585 5.2678 18.4031 6.15718 18.7451 6.9439 19.0872 7.3202 19.2582 7.66228 19.4635 7.86749 19.6346 7.97009 19.703 8.00431 19.7714 8.00431 19.8055 8.00431 19.8399 8.00431 19.8055 8.00431 19.8055 8.00431 19.8055 7.97009 19.9082 7.86749 20.0109 7.76489 20.1135 7.62806 20.216 7.49124 20.3529 7.18338 20.5924 6.80713 20.7975 6.43083 21.037 5.64405 21.4817 4.82312 21.9264 4.00216 22.4053 3.1812 22.9184 2.36025 23.4999 1.67612 24.2867 1.33406 24.6629 1.0262 25.1418 0.820957 25.6207 0.718338 25.8602 0.615718 26.1338 0.58151 26.4075 0.513098 26.6811 0.513098 26.9206 0.478891 27.16 0.444684 27.6731 0.444684 28.1862 0.615718 28.7335 0.752541 29.2466 1.0604 29.7597 1.50509 30.1018 1.94977 30.4439 2.46287 30.6149 2.94176 30.6833 3.45487 30.7516 3.93375 30.7516 4.41264 30.6833 5.37043 30.5806 6.25978 30.307 7.11494 29.965 6.1914 30.136 5.2678 30.2386 4.37843 30.2044 3.93375 30.1701 3.48907 30.136 3.07859 29.9991 2.66811 29.8965 2.29184 29.6913 2.05239 29.4176 1.5393 28.9046 1.47088 28.0836 1.64191 27.2626 1.64191 27.1257 1.71032 26.8863 1.74453 26.7153Z" fill="#262261" transform="matrix(1.05141 0 0 1 964.44 132.82)"/></g></g></g></g></g></g></g></g><text font-family="Consolas,Consolas_MSFontService,sans-serif" font-weight="400" font-size="14" transform="translate(1001.74 152)">wabbit<tspan font-size="14" x="46" y="0">-</tspan><tspan font-size="14" x="53.6666" y="0">networks </tspan><tspan font-size="14" x="122.667" y="0">signature</tspan><tspan font-family="Calibri,Calibri_MSFontService,sans-serif" font-weight="700" font-size="14" x="20.1837" y="58">signature [blobs]</tspan></text><path d="M1015.61 205.514 990.167 205.514 990.167 146.5 990.833 146.5 990.833 205.181 990.5 204.847 1015.61 204.847ZM1014.28 201.181 1022.28 205.181 1014.28 209.181Z" fill="#4472C4"/><text font-family="Calibri,Calibri_MSFontService,sans-serif" font-weight="700" font-size="14" transform="translate(1021.99 233)">reference (<tspan font-size="14" x="63.3333" y="0">subjectManifest</tspan><tspan font-size="14" x="157.167" y="0">)</tspan><tspan fill="#FF0000" font-size="14" x="-20.342" y="-63">mediaType</tspan><tspan font-size="14" x="43.9913" y="-63">: </tspan><tspan fill="#C00000" font-size="14" x="50.9913" y="-63">oci.artifact</tspan><tspan fill="#C00000" font-size="14" x="113.658" y="-63">.</tspan><tspan fill="#C00000" font-size="14" x="117.325" y="-63">manifest.v1</tspan><tspan fill="#FF0000" font-size="14" x="-20.342" y="-46">artifactType</tspan><tspan font-size="14" x="49.9913" y="-46">: </tspan><tspan fill="#C00000" font-size="14" x="56.9913" y="-46">cncf</tspan><tspan fill="#C00000" font-size="14" x="80.6579" y="-46">.notary.v2</tspan></text><path d="M1021.9 229.155 923 229.155 923 125.667 925 125.667 925 228.155 924 227.155 1021.9 227.155ZM920 127 924 119 928 127Z" fill="#4472C4"/><path d="M986.5 356.5 981 366.5 975.5 356.5Z" stroke="#4472C4" stroke-width="1.33333" stroke-miterlimit="8" fill="none" fill-rule="evenodd"/><path d="M973.471 261.493 1266.47 261.493 1266.47 364.493 973.471 364.493Z" stroke="#262261" stroke-width="1.33333" stroke-miterlimit="8" fill="#FFFFFF" fill-rule="evenodd"/><g clip-path="url(#clip12)"><g clip-path="url(#clip13)"><g clip-path="url(#clip14)"><g clip-path="url(#clip15)"><path d="M183.097 267.726 217.161 267.726 217.161 299.661 183.097 299.661Z" fill="#FFFFFF" transform="matrix(1.00067 0 0 1 781.237 -13.7258)"/><g clip-path="url(#clip16)"><g clip-path="url(#clip17)"><g clip-path="url(#clip18)"><g clip-path="url(#clip19)"><path d="M19.7543 16.3346 17.2643 14.1434 9.36253 23.8711 11.8857 26.0292Z" fill="#262261" transform="matrix(1.05141 0 0 1 964.456 254.796)"/><path d="M9.56175 26.6599 8.23371 25.5975 7.5033 28.8181 10.4913 27.4567Z" fill="#262261" transform="matrix(1.05141 0 0 1 964.456 254.796)"/><path d="M27.4567 1.59362 29.98 3.75166 31.3081 2.12484 28.7184 0.0332006Z" fill="#262261" transform="matrix(1.05141 0 0 1 964.456 254.796)"/><path d="M22.5098 15.8698 24.0704 17.1315 28.0213 12.2841C29.3492 10.7569 29.98 8.83133 29.6812 7.2377 29.5485 6.50728 29.2165 5.8765 28.7516 5.34525L26.2283 3.15405 18.4927 12.6162 21.0159 14.8074 27.4236 6.90568C27.5564 7.1049 27.656 7.33728 27.6891 7.60293 27.8884 8.59895 27.3904 9.92693 26.4939 10.9894L22.5098 15.8698Z" fill="#262261" transform="matrix(1.05141 0 0 1 964.456 254.796)"/><path d="M1.69322 25.9295C1.75963 25.7635 1.82602 25.5975 1.92564 25.4316 2.12484 25.0996 2.35724 24.834 2.65603 24.5683 3.22044 24.0372 3.95086 23.6055 4.71446 23.2071 5.47805 22.8087 6.2749 22.4436 7.1049 22.0452 7.5033 21.8459 7.9349 21.6135 8.36651 21.3146 8.59895 21.182 8.79812 21.0159 9.0305 20.7835 9.26294 20.5511 9.49533 20.2854 9.62812 19.8539 9.79413 19.4555 9.76092 18.9242 9.62812 18.5591 9.49533 18.1607 9.22973 17.8618 8.99734 17.6294 8.49931 17.1979 8.03449 16.9655 7.60293 16.733 6.73967 16.3014 5.90966 16.0358 5.14608 15.6706 4.41566 15.3054 3.78486 14.907 3.41965 14.3758 3.05444 13.8778 2.92165 13.2138 3.02124 12.4834 3.12084 11.7197 3.35325 10.9894 3.75166 10.3585 4.58167 9.09693 6.1421 8.26693 7.8021 7.8021 8.63211 7.56972 9.49533 7.40371 10.3918 7.30407 10.8234 7.2377 11.2881 7.20449 11.7197 7.17133 12.1513 7.13811 12.6162 7.1049 13.081 7.1049 11.2881 6.64008 9.42895 6.54049 7.56972 6.77288 6.64008 6.90568 5.71049 7.13811 4.81407 7.53651 3.91765 7.9349 3.08764 8.53252 2.42363 9.36253 2.09163 9.76092 1.82602 10.2257 1.62682 10.6906 1.42762 11.1885 1.29482 11.6534 1.19522 12.1846 1.09562 12.7158 1.09562 13.247 1.16202 13.8114 1.26162 14.3758 1.46082 14.9402 1.79283 15.4382 2.12484 15.9362 2.52324 16.3014 2.95485 16.6335 3.38645 16.9655 3.81805 17.1979 4.24966 17.4303 5.11287 17.8618 5.97609 18.1938 6.73967 18.5258 7.1049 18.6918 7.43692 18.8911 7.63609 19.0571 7.73568 19.1235 7.76889 19.1899 7.76889 19.223 7.76889 19.2564 7.76889 19.223 7.76889 19.223 7.76889 19.223 7.73568 19.3226 7.63609 19.4223 7.53651 19.5219 7.40371 19.6214 7.27091 19.7543 6.9721 19.9867 6.60692 20.1858 6.24168 20.4183 5.47805 20.8499 4.68126 21.2815 3.88445 21.7463 3.08764 22.2443 2.29083 22.8087 1.62682 23.5724 1.29482 23.9375 0.996015 24.4023 0.796812 24.8672 0.69721 25.0996 0.597609 25.3651 0.564407 25.6308 0.498007 25.8964 0.498007 26.1288 0.464806 26.3612 0.431605 26.8592 0.431605 27.3572 0.597609 27.8884 0.730407 28.3864 1.02921 28.8844 1.46082 29.2165 1.89242 29.5485 2.39043 29.7144 2.85523 29.7809 3.35325 29.8472 3.81805 29.8472 4.28286 29.7809 5.21247 29.6812 6.07567 29.4156 6.90568 29.0836 6.0093 29.2496 5.11287 29.3492 4.24966 29.316 3.81805 29.2828 3.38645 29.2496 2.98804 29.1168 2.58964 29.0172 2.22443 28.8181 1.99203 28.5523 1.49402 28.0544 1.42762 27.2576 1.59362 26.4608 1.59362 26.3279 1.66002 26.0955 1.69322 25.9295Z" fill="#262261" transform="matrix(1.05141 0 0 1 964.456 254.796)"/></g></g></g></g></g></g></g></g><text font-family="Consolas,Consolas_MSFontService,sans-serif" font-weight="400" font-size="14" transform="translate(1001.4 274)">SBoM<tspan font-size="14" x="38.3333" y="0">Document</tspan><tspan font-family="Calibri,Calibri_MSFontService,sans-serif" font-weight="700" font-size="14" x="20.1837" y="57">sbom</tspan><tspan font-family="Calibri,Calibri_MSFontService,sans-serif" font-weight="700" font-size="14" x="55.3504" y="57">[blobs]</tspan></text><path d="M1015.61 327.493 990.167 327.493 990.167 256.5 990.833 256.5 990.833 327.16 990.5 326.826 1015.61 326.826ZM1014.28 323.16 1022.28 327.16 1014.28 331.16Z" fill="#4472C4"/><text font-family="Calibri,Calibri_MSFontService,sans-serif" font-weight="700" font-size="14" transform="translate(1021.66 355)">reference (<tspan font-size="14" x="63.3333" y="0">subjectManifest</tspan><tspan font-size="14" x="157.167" y="0">)</tspan><tspan fill="#FF0000" font-size="14" x="-20.3421" y="-63">mediaType</tspan><tspan font-size="14" x="43.9912" y="-63">: </tspan><tspan fill="#C00000" font-size="14" x="50.9912" y="-63">oci.artifact</tspan><tspan fill="#C00000" font-size="14" x="113.658" y="-63">.</tspan><tspan fill="#C00000" font-size="14" x="117.325" y="-63">manifest.v1</tspan><tspan fill="#FF0000" font-size="14" x="-20.3421" y="-46">artifactType</tspan><tspan font-size="14" x="49.9912" y="-46">: </tspan><tspan fill="#C00000" font-size="14" x="56.9912" y="-46">example</tspan><tspan fill="#C00000" font-size="14" x="106.658" y="-46">.sbom.v0</tspan></text><path d="M1021.57 350.804 923 350.804 923 125.667 925 125.667 925 349.804 924 348.804 1021.57 348.804ZM920 127 924 119 928 127Z" fill="#4472C4"/><path d="M1014.47 383.493 1301.47 383.493 1301.47 485.493 1014.47 485.493Z" stroke="#262261" stroke-width="1.33333" stroke-miterlimit="8" fill="#FFFFFF" fill-rule="evenodd"/><g clip-path="url(#clip20)"><g clip-path="url(#clip21)"><g clip-path="url(#clip22)"><g clip-path="url(#clip23)"><path d="M188.645 275.839 223.742 275.839 223.742 308.742 188.645 308.742Z" fill="#FFFFFF" transform="matrix(1.00067 0 0 1 816.668 99.1613)"/><g clip-path="url(#clip24)"><g clip-path="url(#clip25)"><g clip-path="url(#clip26)"><g clip-path="url(#clip27)"><path d="M20.3529 16.8296 17.7875 14.572 9.64624 24.5944 12.2459 26.818Z" fill="#262261" transform="matrix(1.05141 0 0 1 1005.44 375.82)"/><path d="M9.8515 27.4678 8.48322 26.3732 7.73067 29.6913 10.8093 28.2887Z" fill="#262261" transform="matrix(1.05141 0 0 1 1005.44 375.82)"/><path d="M28.2887 1.64191 30.8885 3.86535 32.2568 2.18923 29.5886 0.0342066Z" fill="#262261" transform="matrix(1.05141 0 0 1 1005.44 375.82)"/><path d="M23.1919 16.3507 24.7998 17.6506 28.8704 12.6564C30.2386 11.0829 30.8885 9.09895 30.5806 7.45702 30.4439 6.70447 30.1018 6.05458 29.6229 5.50723L27.0231 3.24963 19.0531 12.9985 21.6528 15.2561 28.2546 7.11494C28.3915 7.3202 28.494 7.55963 28.5282 7.83333 28.7335 8.85952 28.2204 10.2277 27.2967 11.3224L23.1919 16.3507Z" fill="#262261" transform="matrix(1.05141 0 0 1 1005.44 375.82)"/><path d="M1.74453 26.7153C1.81295 26.5442 1.88136 26.3732 1.98399 26.2022 2.18923 25.8602 2.42867 25.5865 2.73652 25.3128 3.31803 24.7656 4.07058 24.3208 4.85732 23.9103 5.64405 23.4999 6.46505 23.1237 7.3202 22.7132 7.73067 22.5079 8.17535 22.2684 8.62004 21.9605 8.85952 21.8238 9.06473 21.6528 9.30416 21.4133 9.54364 21.1739 9.78306 20.9001 9.91988 20.4555 10.0909 20.045 10.0567 19.4977 9.91988 19.1215 9.78306 18.711 9.50942 18.4031 9.26999 18.1636 8.75686 17.719 8.27796 17.4796 7.83333 17.2401 6.9439 16.7953 6.08874 16.5218 5.30202 16.1455 4.54947 15.7692 3.89955 15.3587 3.52327 14.8114 3.147 14.2983 3.01018 13.6142 3.11279 12.8617 3.21541 12.0749 3.45487 11.3224 3.86535 10.6724 4.72051 9.37259 6.32822 8.51744 8.03853 8.03853 8.89369 7.79911 9.78306 7.62806 10.7067 7.52541 11.1513 7.45702 11.6302 7.4228 12.0749 7.38864 12.5196 7.35442 12.9985 7.3202 13.4774 7.3202 11.6302 6.84129 9.71468 6.73869 7.79911 6.97812 6.84129 7.11494 5.88354 7.35442 4.95995 7.76489 4.03637 8.17535 3.1812 8.79108 2.49708 9.64624 2.15501 10.0567 1.88136 10.5356 1.67612 11.0145 1.47088 11.5276 1.33406 12.0065 1.23144 12.5538 1.12882 13.1011 1.12882 13.6484 1.19723 14.2299 1.29985 14.8114 1.50509 15.393 1.84715 15.906 2.18923 16.4191 2.59971 16.7953 3.04439 17.1375 3.48907 17.4796 3.93375 17.719 4.37843 17.9585 5.2678 18.4031 6.15718 18.7451 6.9439 19.0872 7.3202 19.2582 7.66228 19.4635 7.86749 19.6346 7.97009 19.703 8.00431 19.7714 8.00431 19.8055 8.00431 19.8399 8.00431 19.8055 8.00431 19.8055 8.00431 19.8055 7.97009 19.9082 7.86749 20.0109 7.76489 20.1135 7.62806 20.216 7.49124 20.3529 7.18338 20.5924 6.80713 20.7975 6.43083 21.037 5.64405 21.4817 4.82312 21.9264 4.00216 22.4053 3.1812 22.9184 2.36025 23.4999 1.67612 24.2867 1.33406 24.6629 1.0262 25.1418 0.820957 25.6207 0.718338 25.8602 0.615718 26.1338 0.58151 26.4075 0.513098 26.6811 0.513098 26.9206 0.478891 27.16 0.444684 27.6731 0.444684 28.1862 0.615718 28.7335 0.752541 29.2466 1.0604 29.7597 1.50509 30.1018 1.94977 30.4439 2.46287 30.6149 2.94176 30.6833 3.45487 30.7516 3.93375 30.7516 4.41264 30.6833 5.37043 30.5806 6.25978 30.307 7.11494 29.965 6.1914 30.136 5.2678 30.2386 4.37843 30.2044 3.93375 30.1701 3.48907 30.136 3.07859 29.9991 2.66811 29.8965 2.29184 29.6913 2.05239 29.4176 1.5393 28.9046 1.47088 28.0836 1.64191 27.2626 1.64191 27.1257 1.71032 26.8863 1.74453 26.7153Z" fill="#262261" transform="matrix(1.05141 0 0 1 1005.44 375.82)"/></g></g></g></g></g></g></g></g><text font-family="Consolas,Consolas_MSFontService,sans-serif" font-weight="400" font-size="14" transform="translate(1042.83 395)">wabbit<tspan font-size="14" x="46" y="0">-</tspan><tspan font-size="14" x="53.6667" y="0">networks </tspan><tspan font-size="14" x="122.667" y="0">signature</tspan><tspan font-family="Calibri,Calibri_MSFontService,sans-serif" font-weight="700" font-size="14" x="20.1837" y="58">signature [blobs]</tspan></text><path d="M1056.61 449.493 1031.17 449.493 1031.17 378.5 1031.83 378.5 1031.83 449.16 1031.5 448.826 1056.61 448.826ZM1055.28 445.16 1063.28 449.16 1055.28 453.16Z" fill="#4472C4"/><text font-family="Calibri,Calibri_MSFontService,sans-serif" font-weight="700" font-size="14" transform="translate(1063.09 476)">reference (<tspan font-size="14" x="63.3333" y="0">subjectManifest</tspan><tspan font-size="14" x="157.167" y="0">)</tspan><tspan fill="#FF0000" font-size="14" x="-20.342" y="-63">mediaType</tspan><tspan font-size="14" x="43.9912" y="-63">: </tspan><tspan fill="#C00000" font-size="14" x="50.9912" y="-63">oci.artifact</tspan><tspan fill="#C00000" font-size="14" x="113.658" y="-63">.</tspan><tspan fill="#C00000" font-size="14" x="117.325" y="-63">manifest.v1</tspan><tspan fill="#FF0000" font-size="14" x="-20.342" y="-46">artifactType</tspan><tspan font-size="14" x="49.9912" y="-46">: </tspan><tspan fill="#C00000" font-size="14" x="56.9912" y="-46">cncf</tspan><tspan fill="#C00000" font-size="14" x="80.658" y="-46">.notary.v2</tspan></text><path d="M1062.7 472.881 979 472.881 979 372.667 981 372.667 981 471.881 980 470.881 1062.7 470.881ZM976 374 980 366 984 374Z" fill="#4472C4"/></g></svg>