<svg width="270" height="126" xmlns="http://www.w3.org/2000/svg" xmlns:xlink="http://www.w3.org/1999/xlink" overflow="hidden"><defs><clipPath id="clip0"><rect x="110" y="27" width="270" height="126"/></clipPath><clipPath id="clip1"><rect x="113" y="28" width="62" height="42"/></clipPath><clipPath id="clip2"><rect x="113" y="28" width="62" height="42"/></clipPath><clipPath id="clip3"><rect x="113" y="18" width="62" height="62"/></clipPath></defs><g clip-path="url(#clip0)" transform="translate(-110 -27)"><path d="M121.475 35.4925 379.475 35.4925 379.475 148.492 121.475 148.492Z" stroke="#262261" stroke-width="1.33333" stroke-miterlimit="8" fill="#FFFFFF" fill-rule="evenodd"/><text font-family="Consolas,Consolas_MSFontService,sans-serif" font-weight="400" font-size="24" transform="translate(178.832 58)">net-<tspan font-size="24" x="52.6667" y="0">monitor:</tspan><tspan font-size="24" x="158" y="0">v1</tspan></text><path d="M166.349 27.9924 179.438 37.4364C179.621 45.8864 179.793 54.3354 179.977 62.7854L122.524 69.9924 111.031 62.0395C110.848 53.4245 111.203 43.8154 111.031 35.1995L166.349 27.9924Z" fill="#FFFFFF" fill-rule="evenodd"/><g clip-path="url(#clip1)"><g clip-path="url(#clip2)"><g clip-path="url(#clip3)"><path d="M60.7237 43.3278 60.1416 23.1513 12.3517 29.6181 12.869 50.0534 60.7237 43.3278ZM57.0376 27.4841 57.4256 40.0944 53.9335 40.6118 53.5455 28.0014 57.0376 27.4841ZM48.178 28.7128 48.566 41.3231 45.0739 41.8405 44.6859 29.2301 48.178 28.7128ZM39.3184 29.9415 39.7064 42.5518 36.2143 43.0692 35.8263 30.4588 39.3184 29.9415ZM30.4588 31.2348 30.8468 43.8452 27.3547 44.3625 26.9667 31.6875 30.4588 31.2348ZM21.5993 32.4636 21.9873 45.0739 18.4952 45.5912 18.1072 32.9809 21.5993 32.4636Z" fill="#262261" transform="matrix(1.01346 0 0 1 113 18.4118)"/><path d="M0.905358 41.9051 9.05358 47.79 8.6009 28.9715 0.323342 23.0866Z" fill="#262261" transform="matrix(1.01346 0 0 1 113 18.4118)"/><path d="M58.6543 19.5299 48.566 12.3517 1.16403 19.0125 10.929 25.9967Z" fill="#262261" transform="matrix(1.01346 0 0 1 113 18.4118)"/></g></g></g><text font-family="Calibri,Calibri_MSFontService,sans-serif" font-weight="700" font-size="14" transform="translate(159.377 117)">layer1 (blob)<tspan font-size="14" x="-0.859848" y="22">layer2 (blob)</tspan></text><path d="M152.97 113.597 144.167 113.597 144.167 70.5 144.833 70.5 144.833 113.264 144.5 112.93 152.97 112.93ZM151.637 109.264 159.637 113.264 151.637 117.264Z" fill="#4472C4"/><path d="M152.11 135.592 144.167 135.592 144.167 70.5 144.833 70.5 144.833 135.259 144.5 134.925 152.11 134.925ZM150.777 131.259 158.777 135.259 150.777 139.259Z" fill="#4472C4"/><text font-family="Calibri,Calibri_MSFontService,sans-serif" font-weight="700" font-size="14" transform="translate(158.517 96)">config (blob)</text><path d="M152.11 92.5479 144.167 92.5479 144.167 70.5001 144.833 70.5001 144.833 92.2146 144.5 91.8813 152.11 91.8813ZM150.777 88.2146 158.777 92.2146 150.777 96.2146Z" fill="#4472C4"/><text fill="#FF0000" font-family="Calibri,Calibri_MSFontService,sans-serif" font-weight="700" font-size="14" transform="translate(181.175 75)">mediaType<tspan fill="#000000" font-size="14" x="64.3333" y="0">: </tspan><tspan fill="#C00000" font-size="14" x="71.3333" y="0">oci.image.manifest</tspan></text></g></svg>