<svg width="367" height="256" xmlns="http://www.w3.org/2000/svg" xmlns:xlink="http://www.w3.org/1999/xlink" overflow="hidden"><defs><clipPath id="clip0"><rect x="363" y="303" width="367" height="256"/></clipPath><clipPath id="clip1"><rect x="375" y="307" width="62" height="42"/></clipPath><clipPath id="clip2"><rect x="375" y="307" width="62" height="42"/></clipPath><clipPath id="clip3"><rect x="375" y="297" width="62" height="62"/></clipPath><clipPath id="clip4"><rect x="431" y="440" width="34" height="33"/></clipPath><clipPath id="clip5"><rect x="431" y="440" width="34" height="33"/></clipPath><clipPath id="clip6"><rect x="430" y="440" width="36" height="33"/></clipPath><clipPath id="clip7"><rect x="430" y="440" width="36" height="33"/></clipPath><clipPath id="clip8"><rect x="430" y="440" width="35" height="33"/></clipPath><clipPath id="clip9"><rect x="430" y="440" width="35" height="33"/></clipPath><clipPath id="clip10"><rect x="430" y="440" width="35" height="33"/></clipPath><clipPath id="clip11"><rect x="430" y="440" width="35" height="33"/></clipPath></defs><g clip-path="url(#clip0)" transform="translate(-363 -303)"><rect x="364" y="303" width="365" height="255" fill="#FFFFFF"/><path d="M394.5 418.5 389 428.5 383.5 418.5Z" stroke="#4472C4" stroke-width="1.33333" stroke-miterlimit="8" fill="none" fill-rule="evenodd"/><path d="M383.475 314.492 640.475 314.492 640.475 427.492 383.475 427.492Z" stroke="#262261" stroke-width="1.33333" stroke-miterlimit="8" fill="#FFFFFF" fill-rule="evenodd"/><text font-family="Consolas,Consolas_MSFontService,sans-serif" font-weight="400" font-size="24" transform="translate(440.452 337)">net-<tspan font-size="24" x="52.6667" y="0">monitor:</tspan><tspan font-size="24" x="158" y="0">v1</tspan></text><path d="M428.349 306.992 441.438 316.436C441.621 324.886 441.793 333.335 441.977 341.785L384.524 348.992 373.031 341.039C372.848 332.424 373.203 322.815 373.031 314.199L428.349 306.992Z" fill="#FFFFFF" fill-rule="evenodd"/><g clip-path="url(#clip1)"><g clip-path="url(#clip2)"><g clip-path="url(#clip3)"><path d="M60.7237 43.3278 60.1416 23.1513 12.3517 29.6181 12.869 50.0534 60.7237 43.3278ZM57.0376 27.4841 57.4256 40.0944 53.9335 40.6118 53.5455 28.0014 57.0376 27.4841ZM48.178 28.7128 48.566 41.3231 45.0739 41.8405 44.6859 29.2301 48.178 28.7128ZM39.3184 29.9415 39.7064 42.5518 36.2143 43.0692 35.8263 30.4588 39.3184 29.9415ZM30.4588 31.2348 30.8468 43.8452 27.3547 44.3625 26.9667 31.6875 30.4588 31.2348ZM21.5993 32.4636 21.9873 45.0739 18.4952 45.5912 18.1072 32.9809 21.5993 32.4636Z" fill="#262261" transform="matrix(1.01346 0 0 1 375 297.412)"/><path d="M0.905358 41.9051 9.05358 47.79 8.6009 28.9715 0.323342 23.0866Z" fill="#262261" transform="matrix(1.01346 0 0 1 375 297.412)"/><path d="M58.6543 19.5299 48.566 12.3517 1.16403 19.0125 10.929 25.9967Z" fill="#262261" transform="matrix(1.01346 0 0 1 375 297.412)"/></g></g></g><text font-family="Calibri,Calibri_MSFontService,sans-serif" font-weight="700" font-size="14" transform="translate(420.997 397)">layer1 (blob)<tspan font-size="14" x="-0.859833" y="22">layer2 (blob)</tspan></text><path d="M414.97 392.597 406.167 392.597 406.167 349.5 406.833 349.5 406.833 392.264 406.5 391.93 414.97 391.93ZM413.637 388.264 421.637 392.264 413.637 396.264Z" fill="#4472C4"/><path d="M414.11 414.592 406.167 414.592 406.167 349.5 406.833 349.5 406.833 414.259 406.5 413.925 414.11 413.925ZM412.777 410.259 420.777 414.259 412.777 418.259Z" fill="#4472C4"/><text font-family="Calibri,Calibri_MSFontService,sans-serif" font-weight="700" font-size="14" transform="translate(420.137 376)">config (blob)</text><path d="M414.11 371.548 406.167 371.548 406.167 349.5 406.833 349.5 406.833 371.215 406.5 370.881 414.11 370.881ZM412.777 367.215 420.777 371.215 412.777 375.215Z" fill="#4472C4"/><text fill="#FF0000" font-family="Calibri,Calibri_MSFontService,sans-serif" font-weight="700" font-size="14" transform="translate(442.795 354)">mediaType<tspan fill="#000000" font-size="14" x="64.3333" y="0">: </tspan><tspan fill="#C00000" font-size="14" x="71.3333" y="0">oci.image.manifest</tspan></text><path d="M439.472 447.493 723.472 447.493 723.472 550.493 439.472 550.493Z" stroke="#262261" stroke-width="1.33333" stroke-miterlimit="8" fill="#FFFFFF" fill-rule="evenodd"/><g clip-path="url(#clip4)"><g clip-path="url(#clip5)"><g clip-path="url(#clip6)"><g clip-path="url(#clip7)"><path d="M183.097 267.726 217.161 267.726 217.161 299.661 183.097 299.661Z" fill="#FFFFFF" transform="matrix(1.03099 0 0 1 241.668 172.274)"/><g clip-path="url(#clip8)"><g clip-path="url(#clip9)"><g clip-path="url(#clip10)"><g clip-path="url(#clip11)"><path d="M19.7543 16.3346 17.2643 14.1434 9.36253 23.8711 11.8857 26.0292Z" fill="#262261" transform="matrix(1.08327 0 0 1 430.44 440.796)"/><path d="M9.56175 26.6599 8.23371 25.5975 7.5033 28.8181 10.4913 27.4567Z" fill="#262261" transform="matrix(1.08327 0 0 1 430.44 440.796)"/><path d="M27.4567 1.59362 29.98 3.75166 31.3081 2.12484 28.7184 0.0332006Z" fill="#262261" transform="matrix(1.08327 0 0 1 430.44 440.796)"/><path d="M22.5098 15.8698 24.0704 17.1315 28.0213 12.2841C29.3492 10.7569 29.98 8.83133 29.6812 7.2377 29.5485 6.50728 29.2165 5.8765 28.7516 5.34525L26.2283 3.15405 18.4927 12.6162 21.0159 14.8074 27.4236 6.90568C27.5564 7.1049 27.656 7.33728 27.6891 7.60293 27.8884 8.59895 27.3904 9.92693 26.4939 10.9894L22.5098 15.8698Z" fill="#262261" transform="matrix(1.08327 0 0 1 430.44 440.796)"/><path d="M1.69322 25.9295C1.75963 25.7635 1.82602 25.5975 1.92564 25.4316 2.12484 25.0996 2.35724 24.834 2.65603 24.5683 3.22044 24.0372 3.95086 23.6055 4.71446 23.2071 5.47805 22.8087 6.2749 22.4436 7.1049 22.0452 7.5033 21.8459 7.9349 21.6135 8.36651 21.3146 8.59895 21.182 8.79812 21.0159 9.0305 20.7835 9.26294 20.5511 9.49533 20.2854 9.62812 19.8539 9.79413 19.4555 9.76092 18.9242 9.62812 18.5591 9.49533 18.1607 9.22973 17.8618 8.99734 17.6294 8.49931 17.1979 8.03449 16.9655 7.60293 16.733 6.73967 16.3014 5.90966 16.0358 5.14608 15.6706 4.41566 15.3054 3.78486 14.907 3.41965 14.3758 3.05444 13.8778 2.92165 13.2138 3.02124 12.4834 3.12084 11.7197 3.35325 10.9894 3.75166 10.3585 4.58167 9.09693 6.1421 8.26693 7.8021 7.8021 8.63211 7.56972 9.49533 7.40371 10.3918 7.30407 10.8234 7.2377 11.2881 7.20449 11.7197 7.17133 12.1513 7.13811 12.6162 7.1049 13.081 7.1049 11.2881 6.64008 9.42895 6.54049 7.56972 6.77288 6.64008 6.90568 5.71049 7.13811 4.81407 7.53651 3.91765 7.9349 3.08764 8.53252 2.42363 9.36253 2.09163 9.76092 1.82602 10.2257 1.62682 10.6906 1.42762 11.1885 1.29482 11.6534 1.19522 12.1846 1.09562 12.7158 1.09562 13.247 1.16202 13.8114 1.26162 14.3758 1.46082 14.9402 1.79283 15.4382 2.12484 15.9362 2.52324 16.3014 2.95485 16.6335 3.38645 16.9655 3.81805 17.1979 4.24966 17.4303 5.11287 17.8618 5.97609 18.1938 6.73967 18.5258 7.1049 18.6918 7.43692 18.8911 7.63609 19.0571 7.73568 19.1235 7.76889 19.1899 7.76889 19.223 7.76889 19.2564 7.76889 19.223 7.76889 19.223 7.76889 19.223 7.73568 19.3226 7.63609 19.4223 7.53651 19.5219 7.40371 19.6214 7.27091 19.7543 6.9721 19.9867 6.60692 20.1858 6.24168 20.4183 5.47805 20.8499 4.68126 21.2815 3.88445 21.7463 3.08764 22.2443 2.29083 22.8087 1.62682 23.5724 1.29482 23.9375 0.996015 24.4023 0.796812 24.8672 0.69721 25.0996 0.597609 25.3651 0.564407 25.6308 0.498007 25.8964 0.498007 26.1288 0.464806 26.3612 0.431605 26.8592 0.431605 27.3572 0.597609 27.8884 0.730407 28.3864 1.02921 28.8844 1.46082 29.2165 1.89242 29.5485 2.39043 29.7144 2.85523 29.7809 3.35325 29.8472 3.81805 29.8472 4.28286 29.7809 5.21247 29.6812 6.07567 29.4156 6.90568 29.0836 6.0093 29.2496 5.11287 29.3492 4.24966 29.316 3.81805 29.2828 3.38645 29.2496 2.98804 29.1168 2.58964 29.0172 2.22443 28.8181 1.99203 28.5523 1.49402 28.0544 1.42762 27.2576 1.59362 26.4608 1.59362 26.3279 1.66002 26.0955 1.69322 25.9295Z" fill="#262261" transform="matrix(1.08327 0 0 1 430.44 440.796)"/></g></g></g></g></g></g></g></g><text font-family="Consolas,Consolas_MSFontService,sans-serif" font-weight="400" font-size="14" transform="translate(467.733 460)">SBoM<tspan font-size="14" x="38.3333" y="0">Document</tspan><tspan font-family="Calibri,Calibri_MSFontService,sans-serif" font-weight="700" font-size="14" x="20.1837" y="57">sbom</tspan><tspan font-family="Calibri,Calibri_MSFontService,sans-serif" font-weight="700" font-size="14" x="55.3504" y="57">[blobs]</tspan></text><path d="M481.612 513.493 456.167 513.493 456.167 442.5 456.833 442.5 456.833 513.16 456.5 512.826 481.612 512.826ZM480.279 509.16 488.279 513.16 480.279 517.16Z" fill="#4472C4"/><text font-family="Calibri,Calibri_MSFontService,sans-serif" font-weight="700" font-size="14" transform="translate(487.986 541)">reference (<tspan font-size="14" x="63.3334" y="0">subjectManifest</tspan><tspan font-size="14" x="157.167" y="0">)</tspan><tspan fill="#FF0000" font-size="14" x="-20.3421" y="-63">mediaType</tspan><tspan font-size="14" x="43.9912" y="-63">: </tspan><tspan fill="#C00000" font-size="14" x="50.9912" y="-63">oci.artifact</tspan><tspan fill="#C00000" font-size="14" x="113.658" y="-63">.</tspan><tspan fill="#C00000" font-size="14" x="117.325" y="-63">manifest.v1</tspan><tspan fill="#FF0000" font-size="14" x="-20.3421" y="-46">artifactType</tspan><tspan font-size="14" x="49.9912" y="-46">: </tspan><tspan fill="#C00000" font-size="14" x="56.9912" y="-46">example</tspan><tspan fill="#C00000" font-size="14" x="106.658" y="-46">.sbom.v0</tspan></text><path d="M488.251 537.459 388 537.459 388 434.667 390 434.667 390 536.459 389 535.459 488.251 535.459ZM385 436 389 428 393 436Z" fill="#4472C4"/></g></svg>